<?xml version="1.0" standalone="no"?>
<!DOCTYPE svg PUBLIC "-//W3C//DTD SVG 20010904//EN"
 "http://www.w3.org/TR/2001/REC-SVG-20010904/DTD/svg10.dtd">
<svg version="1.0" xmlns="http://www.w3.org/2000/svg"
 width="600px" height="400px" viewBox="0 0 1009.000000 254.000000"
 preserveAspectRatio="xMidYMid meet">

<g transform="translate(0.000000,254.000000) scale(0.100000,-0.100000)"
fill="#013289" stroke="none">
<path d="M6024 2420 c-52 -29 -114 -93 -114 -118 0 -29 30 -22 65 17 42 46
134 96 149 81 13 -13 -14 -42 -101 -107 -40 -30 -73 -55 -73 -58 0 -22 17 -35
44 -35 18 0 40 -6 50 -13 28 -20 7 -50 -56 -81 -61 -30 -86 -33 -104 -8 -13
16 -15 16 -29 -2 -19 -25 -19 -41 1 -60 65 -65 296 96 247 172 -5 9 -18 20
-29 26 -10 6 -21 12 -23 14 -3 1 19 24 48 49 61 54 87 103 71 133 -17 31 -83
27 -146 -10z"/>
<path d="M3810 2359 c-117 -23 -265 -133 -314 -231 -28 -56 -34 -129 -15 -172
13 -27 64 -56 99 -56 18 0 20 4 14 22 -4 13 -6 52 -6 88 2 113 68 215 170 263
12 6 25 7 29 4 3 -4 -66 -204 -155 -445 -89 -241 -162 -441 -162 -445 0 -4 21
-7 48 -7 l48 0 103 283 c57 155 108 287 114 292 6 7 7 -21 3 -80 -3 -49 -8
-166 -11 -260 -3 -93 -8 -185 -11 -203 l-5 -33 91 3 91 3 114 272 c124 298
139 328 130 273 -10 -62 -75 -535 -75 -542 0 -5 40 -8 90 -8 85 0 90 1 95 23
12 52 132 933 128 940 -2 4 -42 7 -88 7 -82 0 -85 -1 -98 -27 -8 -16 -72 -165
-142 -333 -70 -168 -131 -309 -136 -314 -11 -12 -12 -46 6 324 8 168 15 315
15 327 0 12 -8 24 -17 27 -40 11 -111 14 -153 5z"/>
<path d="M4773 2355 c-127 -28 -275 -131 -324 -226 -47 -93 -31 -186 36 -215
60 -25 63 -22 57 54 -6 95 17 170 70 229 36 38 84 73 103 73 10 0 4 -37 -85
-455 -49 -234 -90 -427 -90 -430 0 -3 40 -5 90 -5 85 0 90 1 95 23 29 115 202
954 198 960 -6 11 -80 7 -150 -8z"/>
<path d="M5655 2361 c-95 -25 -227 -139 -335 -289 l-65 -91 -71 0 c-102 -1
-170 -24 -221 -76 -35 -34 -43 -49 -43 -79 0 -48 28 -76 78 -76 53 0 80 29 65
70 -9 24 -8 32 6 44 19 18 53 31 103 40 l37 7 -59 -123 c-80 -167 -122 -294
-127 -388 -6 -107 25 -152 114 -166 l42 -6 -6 53 c-10 105 60 384 144 571 25
57 27 59 57 53 53 -10 136 -38 142 -46 4 -7 -76 -408 -92 -461 -5 -16 4 -18
86 -18 63 0 92 4 95 13 18 48 203 953 196 960 -12 12 -111 18 -146 8z m-49
-108 c-3 -10 -19 -88 -37 -173 -18 -85 -33 -156 -34 -158 -1 -1 -39 7 -84 20
-94 25 -92 15 -23 131 69 117 198 247 178 180z"/>
<path d="M3220 2336 c-73 -21 -119 -43 -184 -90 -103 -73 -146 -143 -146 -235
0 -76 25 -110 87 -118 l43 -6 -11 33 c-25 70 7 193 69 261 41 46 98 86 108 76
2 -2 -39 -203 -91 -447 -52 -243 -95 -446 -95 -450 0 -4 24 -10 54 -13 77 -8
148 -45 283 -148 65 -50 141 -102 168 -117 64 -32 133 -35 165 -7 30 27 58 84
66 134 l7 41 -34 -6 c-19 -3 -40 -8 -48 -10 -41 -13 -150 22 -286 91 -78 39
-151 74 -162 77 -19 5 -16 25 78 464 54 253 99 465 99 472 0 16 -109 15 -170
-2z"/>
<path d="M2302 2265 c-146 -19 -136 -14 -105 -58 16 -22 23 -41 17 -46 -32
-29 -511 -374 -519 -374 -5 0 -141 95 -302 211 -161 116 -304 219 -318 228
-26 17 -27 17 -491 -217 -310 -157 -464 -239 -464 -250 0 -8 6 -23 13 -33 13
-17 43 -4 463 207 l450 225 324 -233 c186 -135 328 -231 335 -227 6 4 133 96
282 205 149 108 275 197 281 197 6 0 20 -16 32 -36 13 -19 26 -32 30 -27 7 8
110 232 110 239 0 5 -20 4 -138 -11z"/>
<path d="M2293 1893 l-243 -176 0 -789 0 -788 250 0 250 0 0 965 c0 531 -3
965 -7 965 -5 -1 -117 -80 -250 -177z"/>
<path d="M898 1850 l-138 -70 0 -820 0 -820 250 0 250 0 -1 818 0 817 -97 69
c-53 38 -103 70 -112 72 -8 2 -77 -28 -152 -66z"/>
<path d="M353 1577 l-243 -122 0 -657 0 -658 250 0 250 0 0 780 c0 429 -3 780
-7 779 -5 0 -117 -55 -250 -122z m107 -702 l0 -585 -100 0 -100 0 0 538 0 537
93 47 c50 26 95 47 100 47 4 1 7 -262 7 -584z"/>
<path d="M1412 898 l3 -763 242 1 c133 0 245 3 248 5 3 3 4 335 3 738 l-3 733
-100 -73 c-55 -40 -105 -72 -110 -72 -6 0 -51 29 -100 64 -50 36 -111 80 -138
98 l-47 32 2 -763z m316 398 l32 25 0 -515 0 -516 -100 0 -100 0 0 540 0 540
68 -49 67 -49 33 24z"/>
<path d="M4367 784 c-10 -11 -9 -42 3 -49 20 -12 51 6 48 28 -3 22 -36 35 -51
21z"/>
<path d="M5457 784 c-12 -13 -8 -42 8 -48 25 -9 46 5 43 28 -3 21 -37 34 -51
20z"/>
<path d="M6354 775 c-4 -9 0 -23 8 -31 20 -20 50 -7 46 20 -4 26 -45 35 -54
11z"/>
<path d="M7207 776 c-4 -9 1 -22 9 -31 19 -19 57 -2 52 23 -4 22 -53 28 -61 8z"/>
<path d="M8810 766 c0 -29 22 -39 46 -22 24 18 11 46 -21 46 -20 0 -25 -5 -25
-24z"/>
<path d="M9044 775 c-4 -9 -2 -21 4 -27 16 -16 47 -5 47 17 0 26 -42 34 -51
10z"/>
<path d="M9313 774 c-7 -20 22 -45 42 -38 16 7 27 32 19 45 -9 15 -54 10 -61
-7z"/>
<path d="M3287 773 c-4 -3 -7 -59 -7 -124 l0 -119 48 0 c26 0 56 0 67 0 32 -1
55 36 55 91 0 65 -26 94 -76 84 l-34 -6 0 41 c0 35 -3 40 -23 40 -13 0 -27 -3
-30 -7z m106 -134 c8 -31 -10 -71 -31 -67 -17 3 -28 47 -18 74 8 22 43 17 49
-7z"/>
<path d="M5350 666 c0 -124 7 -140 54 -134 25 3 25 4 11 32 -10 19 -15 58 -15
122 0 94 0 94 -25 94 l-25 0 0 -114z"/>
<path d="M6130 742 c0 -37 -1 -38 -34 -34 -27 3 -37 -1 -55 -23 -32 -41 -25
-122 12 -147 6 -3 39 -6 74 -6 l63 0 0 124 0 124 -30 0 c-28 0 -30 -2 -30 -38z
m0 -121 c0 -22 -5 -43 -10 -46 -17 -11 -40 15 -40 45 0 31 7 40 32 40 14 0 18
-8 18 -39z"/>
<path d="M6990 681 c0 -124 9 -151 50 -151 23 0 30 4 30 19 0 11 -4 23 -10 26
-6 3 -10 50 -10 106 l0 99 -30 0 -30 0 0 -99z"/>
<path d="M7100 674 c0 -58 5 -114 10 -125 15 -27 70 -27 70 0 0 11 -4 23 -10
26 -6 3 -10 50 -10 106 l0 99 -30 0 -30 0 0 -106z"/>
<path d="M8942 768 c-5 -7 -13 -23 -16 -35 -4 -13 -12 -23 -17 -23 -5 0 -9 -9
-9 -20 0 -11 5 -20 10 -20 6 0 10 -30 10 -70 l0 -70 30 0 30 0 0 65 c0 49 4
67 15 71 8 4 15 15 15 25 0 10 -7 19 -15 19 -21 0 -19 19 3 27 17 7 32 22 32
36 0 12 -77 8 -88 -5z"/>
<path d="M9610 674 c0 -58 5 -114 10 -125 15 -27 70 -27 70 0 0 11 -4 23 -10
26 -6 3 -10 50 -10 106 l0 99 -30 0 -30 0 0 -106z"/>
<path d="M9720 667 c0 -123 5 -137 53 -137 25 0 27 3 22 23 -4 12 -11 26 -16
31 -5 6 -9 52 -9 103 0 93 0 93 -25 93 l-25 0 0 -113z"/>
<path d="M6245 718 c8 -61 11 -68 29 -68 13 0 26 49 26 98 0 18 -5 22 -31 22
l-31 0 7 -52z"/>
<path d="M2900 645 l0 -115 75 0 c73 0 75 1 75 25 0 23 -4 25 -45 25 l-45 0 0
90 0 90 -30 0 -30 0 0 -115z"/>
<path d="M4880 645 l0 -115 26 0 27 0 -5 70 c-3 39 -4 70 -3 70 1 0 13 -27 25
-60 30 -79 50 -80 76 -2 l19 57 3 -67 c3 -65 4 -68 27 -68 l25 0 0 116 0 115
-32 -3 c-30 -3 -35 -8 -53 -60 -20 -56 -35 -82 -35 -60 0 6 -9 36 -21 67 -18
49 -23 55 -50 55 l-29 0 0 -115z"/>
<path d="M8680 735 c0 -16 -6 -25 -15 -25 -8 0 -15 -9 -15 -20 0 -11 5 -20 10
-20 6 0 10 -21 10 -48 0 -65 20 -92 69 -92 35 0 38 2 33 25 -3 16 -11 25 -23
25 -16 0 -19 8 -19 45 0 38 3 45 20 45 13 0 20 7 20 20 0 13 -7 20 -20 20 -15
0 -20 7 -20 25 0 20 -5 25 -25 25 -20 0 -25 -5 -25 -25z"/>
<path d="M4032 725 c-6 -14 -16 -25 -22 -25 -5 0 -10 -9 -10 -20 0 -11 7 -20
15 -20 11 0 15 -12 15 -44 0 -24 3 -52 6 -61 8 -21 45 -35 73 -28 27 7 28 43
1 43 -14 0 -21 9 -26 34 -7 41 0 56 27 56 28 0 25 38 -3 42 -15 2 -24 11 -26
26 -5 30 -36 29 -50 -3z"/>
<path d="M6680 730 c0 -11 -7 -20 -15 -20 -9 0 -15 -9 -15 -25 0 -14 4 -25 9
-25 5 0 11 -22 13 -50 6 -63 21 -80 68 -80 33 0 37 3 33 19 -3 11 -13 21 -24
24 -15 4 -19 14 -19 46 0 34 3 41 20 41 15 0 20 7 20 25 0 18 -5 25 -20 25
-13 0 -20 7 -20 20 0 15 -7 20 -25 20 -18 0 -25 -5 -25 -20z"/>
<path d="M8368 709 c-38 -10 -48 -18 -42 -34 4 -9 18 -13 37 -12 45 3 46 -16
2 -27 -48 -11 -65 -45 -41 -81 17 -26 45 -32 77 -15 13 7 19 7 19 0 0 -5 11
-10 25 -10 24 0 25 2 25 63 0 34 -6 73 -13 86 -14 28 -50 41 -89 30z m42 -113
c0 -17 -27 -29 -35 -16 -4 6 -3 15 0 20 9 15 35 12 35 -4z"/>
<path d="M8586 699 c-21 -17 -26 -18 -26 -5 0 10 -9 16 -25 16 -25 0 -25 -1
-25 -90 l0 -90 30 0 c30 0 30 1 30 53 0 55 12 77 41 77 17 0 33 36 23 52 -8
13 -19 10 -48 -13z"/>
<path d="M9195 706 c-35 -15 -50 -32 -58 -65 -8 -31 15 -86 41 -100 24 -13 72
-14 90 -3 21 14 2 41 -31 44 -29 3 -32 7 -35 40 -3 29 1 38 17 43 12 3 24 4
29 1 4 -2 13 4 20 15 11 17 9 21 -13 29 -15 6 -27 10 -28 10 -1 -1 -16 -7 -32
-14z"/>
<path d="M9458 704 c-34 -18 -48 -43 -48 -84 0 -44 47 -90 92 -90 69 0 80 46
12 52 -60 5 -55 28 5 28 47 0 51 2 51 24 0 38 -10 56 -41 71 -34 18 -37 18
-71 -1z m62 -49 c0 -9 -9 -15 -25 -15 -24 0 -32 10 -18 23 12 13 43 7 43 -8z"/>
<path d="M9859 705 c-53 -29 -59 -118 -11 -155 28 -23 80 -26 106 -7 23 17 5
34 -43 39 -57 5 -51 28 8 28 l51 0 0 33 c0 57 -60 90 -111 62z m61 -50 c0 -9
-9 -15 -25 -15 -24 0 -32 10 -18 23 12 13 43 7 43 -8z"/>
<path d="M3130 703 c-8 -2 -21 -6 -28 -9 -9 -3 -10 -9 -3 -22 7 -14 18 -17 45
-14 47 5 47 -14 1 -22 -41 -8 -67 -41 -58 -74 7 -28 47 -46 71 -33 9 5 32 6
50 4 l32 -5 0 66 c0 58 -3 70 -25 91 -23 24 -51 30 -85 18z m50 -113 c0 -13
-7 -20 -20 -20 -25 0 -26 16 -2 29 23 14 22 14 22 -9z"/>
<path d="M3540 703 c-50 -19 -72 -80 -46 -131 31 -61 121 -61 152 0 39 75 -29
159 -106 131z m56 -70 c8 -29 -6 -58 -26 -58 -20 0 -34 29 -26 58 9 37 43 37
52 0z"/>
<path d="M3764 693 c-13 -13 -19 -14 -22 -5 -2 6 -15 12 -28 12 -23 0 -24 -2
-24 -85 l0 -85 30 0 c29 0 30 1 30 49 0 50 17 81 45 81 12 0 25 21 25 41 0 15
-38 10 -56 -8z"/>
<path d="M3858 698 c-23 -8 -26 -13 -18 -28 8 -15 17 -18 45 -13 23 4 35 2 35
-6 0 -6 -7 -11 -15 -11 -9 0 -29 -7 -45 -15 -23 -12 -30 -22 -30 -45 0 -37 39
-67 67 -52 10 5 33 7 51 5 l32 -5 0 71 c0 58 -4 75 -20 91 -21 21 -58 24 -102
8z m62 -108 c0 -13 -7 -20 -20 -20 -25 0 -26 16 -2 29 23 14 22 14 22 -9z"/>
<path d="M4195 698 c-51 -29 -61 -98 -22 -143 50 -59 147 -20 147 60 0 47 -8
64 -41 80 -33 18 -57 18 -84 3z m60 -83 c0 -33 -3 -40 -20 -40 -15 0 -21 8
-23 28 -5 39 5 59 25 55 14 -2 18 -13 18 -43z"/>
<path d="M4367 704 c-4 -4 -7 -45 -7 -91 l0 -83 30 0 31 0 -3 88 c-3 79 -5 87
-23 90 -12 2 -24 0 -28 -4z"/>
<path d="M4467 703 c-4 -3 -7 -44 -7 -90 l0 -83 30 0 c30 0 30 1 30 55 0 57 2
59 56 80 1 0 5 10 8 23 6 17 3 22 -11 22 -10 0 -28 -7 -40 -15 -19 -13 -22
-13 -27 0 -6 15 -28 20 -39 8z"/>
<path d="M4629 681 c-42 -42 -36 -116 12 -141 26 -15 87 -16 101 -2 17 17 -5
37 -41 37 -19 0 -36 6 -38 13 -3 8 10 12 46 12 l51 0 0 33 c0 72 -78 101 -131
48z m79 -29 c2 -7 -7 -12 -22 -12 -27 0 -35 15 -13 23 17 7 30 3 35 -11z"/>
<path d="M5172 700 c-18 -8 -21 -13 -13 -28 7 -14 18 -17 45 -14 44 5 48 -13
4 -22 -42 -8 -58 -23 -58 -56 0 -39 16 -48 88 -48 l62 0 0 69 c0 56 -4 73 -20
89 -21 21 -68 25 -108 10z m68 -110 c0 -13 -7 -20 -20 -20 -23 0 -26 10 -8 28
18 18 28 15 28 -8z"/>
<path d="M5450 620 l0 -90 30 0 30 0 0 90 0 90 -30 0 -30 0 0 -90z"/>
<path d="M5575 685 c-58 -57 -22 -155 56 -155 54 0 71 8 59 30 -6 12 -17 16
-35 13 -14 -3 -33 1 -42 8 -14 12 -10 15 38 19 54 5 54 5 52 38 -3 70 -78 98
-128 47z m75 -30 c11 -13 8 -15 -20 -15 -28 0 -31 2 -20 15 7 8 16 15 20 15 4
0 13 -7 20 -15z"/>
<path d="M5747 703 c-4 -3 -7 -44 -7 -90 l0 -83 30 0 c29 0 29 1 32 63 3 56 5
62 26 65 21 3 22 0 22 -62 l0 -66 30 0 30 0 0 73 c0 59 -4 77 -18 90 -22 20
-63 22 -81 5 -11 -10 -14 -10 -18 0 -5 13 -35 17 -46 5z"/>
<path d="M6350 620 l0 -90 30 0 30 0 0 90 0 90 -30 0 -30 0 0 -90z"/>
<path d="M6460 620 c0 -89 0 -90 25 -90 23 0 24 4 27 63 3 56 5 62 26 65 21 3
22 0 22 -62 l0 -66 30 0 30 0 0 71 c0 39 -5 79 -10 90 -12 21 -50 25 -80 9
-13 -7 -21 -7 -25 0 -3 5 -15 10 -26 10 -17 0 -19 -8 -19 -90z"/>
<path d="M6819 684 c-53 -57 -15 -154 60 -154 43 0 66 13 58 32 -3 10 -15 13
-34 11 -19 -3 -34 1 -42 11 -12 14 -8 16 38 16 l51 0 0 35 c0 71 -81 102 -131
49z m81 -29 c11 -13 8 -15 -19 -15 -30 0 -39 9 -24 23 11 11 30 8 43 -8z"/>
<path d="M7210 620 c0 -89 0 -90 25 -90 25 0 25 1 25 90 0 89 0 90 -25 90 -25
0 -25 -1 -25 -90z"/>
<path d="M7327 692 c-19 -20 -23 -67 -7 -77 7 -4 6 -13 -1 -26 -5 -11 -7 -28
-4 -39 3 -10 1 -21 -5 -25 -17 -10 -11 -44 9 -55 11 -5 40 -10 66 -10 35 0 51
6 70 25 14 13 25 31 25 39 0 23 -41 46 -82 46 -21 0 -38 5 -38 10 0 6 13 10
28 10 33 0 62 27 62 58 0 12 5 22 10 22 6 0 10 9 10 20 0 18 -7 20 -63 20 -49
0 -68 -4 -80 -18z m71 -44 c-2 -13 -10 -23 -18 -23 -8 0 -16 10 -18 23 -3 17
2 22 18 22 16 0 21 -5 18 -22z m20 -140 c-3 -7 -17 -13 -33 -13 -16 0 -30 6
-32 13 -3 8 7 12 32 12 25 0 35 -4 33 -12z"/>
<path d="M7520 690 c-59 -59 -22 -160 59 -160 44 0 66 13 58 34 -5 11 -14 14
-35 10 -19 -4 -32 -1 -41 10 -12 14 -8 16 38 16 l51 0 0 35 c0 22 -8 43 -20
55 -26 26 -83 27 -110 0z m78 -37 c2 -8 -6 -13 -22 -13 -25 0 -33 10 -19 24
10 10 36 3 41 -11z"/>
<path d="M7690 620 l0 -90 30 0 30 0 0 66 c0 62 1 65 23 62 20 -3 22 -9 25
-65 l3 -63 31 0 31 0 -5 75 c-3 41 -11 81 -18 90 -14 17 -53 20 -81 5 -13 -7
-19 -7 -19 0 0 5 -11 10 -25 10 -25 0 -25 -1 -25 -90z"/>
<path d="M7922 690 c-40 -38 -41 -101 -1 -141 28 -28 104 -24 104 6 0 15 -8
21 -35 25 -31 4 -35 9 -38 37 -2 24 2 34 18 43 11 6 24 9 29 6 12 -8 34 21 26
34 -11 18 -80 12 -103 -10z"/>
<path d="M8075 685 c-19 -18 -25 -35 -25 -65 0 -55 34 -90 87 -90 47 0 66 11
57 34 -4 11 -13 15 -25 11 -22 -7 -59 2 -59 15 0 5 21 10 48 12 42 3 47 6 50
29 8 68 -82 105 -133 54z m83 -32 c2 -9 -7 -13 -28 -13 -28 0 -31 2 -20 15 15
18 41 16 48 -2z"/>
<path d="M8810 620 l0 -90 30 0 30 0 0 90 0 90 -30 0 -30 0 0 -90z"/>
<path d="M9040 620 l0 -90 30 0 30 0 0 90 0 90 -30 0 -30 0 0 -90z"/>
<path d="M9320 620 c0 -89 0 -90 25 -90 25 0 25 1 25 90 0 89 0 90 -25 90 -25
0 -25 -1 -25 -90z"/>
<path d="M4930 396 c0 -29 22 -39 46 -22 24 18 11 46 -21 46 -20 0 -25 -5 -25
-24z"/>
<path d="M7387 407 c-8 -22 8 -39 34 -35 35 5 33 42 -2 46 -16 2 -29 -3 -32
-11z"/>
<path d="M3410 370 c0 -38 -2 -40 -24 -34 -14 3 -34 3 -46 -1 -29 -9 -53 -68
-44 -109 11 -54 28 -64 105 -64 l69 1 0 101 c0 126 -5 146 -36 146 -21 0 -24
-5 -24 -40z m-2 -113 c3 -27 -12 -57 -29 -57 -15 0 -31 42 -24 67 9 36 49 28
53 -10z"/>
<path d="M3520 371 c0 -49 12 -91 26 -91 14 0 21 20 27 83 3 35 1 37 -25 37
-24 0 -28 -4 -28 -29z"/>
<path d="M4807 384 c-4 -4 -7 -16 -7 -26 0 -10 -7 -18 -15 -18 -9 0 -15 -9
-15 -25 0 -14 5 -25 10 -25 6 0 10 -19 10 -43 0 -60 22 -87 70 -87 33 0 37 3
33 19 -3 11 -13 21 -24 24 -15 4 -19 14 -19 46 0 34 3 41 20 41 15 0 20 7 20
25 0 18 -5 25 -19 25 -13 0 -21 8 -23 22 -3 23 -27 35 -41 22z"/>
<path d="M6420 370 c0 -11 -7 -23 -15 -26 -17 -7 -20 -40 -5 -49 6 -3 10 -25
10 -48 0 -60 22 -87 70 -87 34 0 38 2 33 21 -4 12 -14 24 -25 26 -14 4 -18 15
-18 49 0 37 3 44 20 44 13 0 20 7 20 20 0 13 -7 20 -19 20 -13 0 -21 8 -23 23
-4 30 -48 38 -48 7z"/>
<path d="M7256 366 c-3 -15 -11 -26 -16 -26 -6 0 -10 -9 -10 -20 0 -11 5 -20
10 -20 6 0 10 -21 10 -48 0 -63 21 -92 66 -92 28 0 34 4 34 21 0 12 -8 23 -20
26 -16 4 -20 14 -20 49 0 37 3 44 20 44 13 0 20 7 20 20 0 13 -7 20 -19 20
-13 0 -21 8 -23 23 -5 33 -44 35 -52 3z"/>
<path d="M3100 360 c0 -11 -7 -20 -15 -20 -9 0 -15 -9 -15 -25 0 -14 4 -25 9
-25 5 0 11 -22 13 -50 6 -63 21 -80 68 -80 33 0 37 3 33 19 -3 11 -13 21 -24
24 -15 4 -19 14 -19 46 0 34 3 41 20 41 15 0 20 7 20 25 0 18 -5 25 -20 25
-13 0 -20 7 -20 20 0 15 -7 20 -25 20 -18 0 -25 -5 -25 -20z"/>
<path d="M6048 339 c-39 -10 -48 -18 -41 -35 3 -10 16 -14 39 -12 41 4 45 -14
4 -25 -37 -9 -61 -42 -51 -70 12 -33 36 -43 71 -30 16 6 30 7 30 2 0 -5 11 -9
25 -9 24 0 25 2 25 68 0 97 -30 130 -102 111z m42 -113 c0 -8 -5 -18 -11 -22
-14 -8 -33 11 -25 25 10 16 36 13 36 -3z"/>
<path d="M6585 336 c-59 -25 -72 -100 -26 -147 36 -36 79 -38 117 -6 52 45 27
141 -41 160 -11 4 -34 0 -50 -7z m55 -57 c18 -32 4 -71 -23 -67 -26 4 -36 50
-16 74 16 19 26 18 39 -7z"/>
<path d="M6820 333 c-17 -12 -25 -13 -28 -5 -2 7 -15 12 -28 12 -24 0 -24 -1
-24 -90 l0 -90 30 0 c30 0 30 0 30 59 0 39 5 63 15 71 25 20 35 1 35 -66 l0
-64 30 0 30 0 0 65 c0 37 4 65 10 65 6 0 13 0 18 0 4 0 9 -28 12 -62 5 -60 6
-63 33 -66 l27 -3 0 80 c0 74 -2 82 -24 96 -22 15 -28 15 -53 2 -24 -13 -32
-13 -53 -1 -32 17 -31 17 -60 -3z"/>
<path d="M7092 339 c-24 -7 -32 -15 -30 -27 3 -13 12 -16 40 -14 52 4 56 -14
6 -30 -48 -15 -63 -35 -54 -71 7 -31 49 -46 77 -29 12 8 20 8 24 2 3 -6 15
-10 26 -10 17 0 19 7 19 74 0 72 -13 106 -40 106 -5 0 -14 2 -22 4 -7 2 -28 0
-46 -5z m56 -111 c-3 -7 -14 -14 -26 -16 -16 -3 -20 1 -16 12 7 19 48 22 42 4z"/>
<path d="M7517 330 c-32 -26 -44 -79 -27 -121 16 -37 44 -53 81 -45 28 5 29 4
29 -29 0 -31 3 -35 25 -35 l25 0 0 120 0 120 -32 -1 c-18 -1 -42 2 -53 5 -14
5 -30 0 -48 -14z m78 -75 c0 -31 -4 -41 -19 -43 -32 -7 -50 50 -24 76 24 24
43 9 43 -33z"/>
<path d="M7954 340 c-58 -23 -73 -113 -28 -155 28 -26 72 -32 104 -15 31 17
13 40 -31 40 -28 0 -39 4 -39 15 0 11 12 15 50 15 43 0 50 3 50 20 0 32 -21
67 -47 79 -28 13 -31 13 -59 1z m54 -57 c2 -8 -6 -13 -22 -13 -17 0 -26 5 -26
16 0 19 41 16 48 -3z"/>
<path d="M2916 309 c-54 -64 -19 -149 61 -149 21 0 44 4 52 9 22 14 -1 36 -38
36 -19 0 -36 6 -38 13 -3 8 10 12 46 12 49 0 51 1 51 29 0 77 -85 109 -134 50z
m82 -27 c2 -7 -7 -12 -22 -12 -27 0 -35 15 -13 23 17 7 30 3 35 -11z"/>
<path d="M3645 327 c-25 -19 -10 -37 31 -37 19 0 34 -4 34 -10 0 -5 -7 -10
-15 -10 -51 0 -88 -48 -66 -88 9 -17 21 -20 82 -20 l71 1 -4 68 c-4 82 -23
109 -78 109 -20 0 -44 -6 -55 -13z m73 -104 c-4 -22 -38 -30 -38 -10 0 14 13
24 33 26 5 1 7 -7 5 -16z"/>
<path d="M3820 220 l0 -120 30 0 c27 0 30 3 30 33 0 32 1 33 34 29 27 -3 37 1
55 23 28 37 29 103 1 133 -23 24 -69 29 -88 10 -9 -9 -12 -9 -12 0 0 7 -11 12
-25 12 l-25 0 0 -120z m108 34 c3 -32 -19 -61 -38 -49 -5 3 -10 24 -10 46 0
36 2 40 23 37 16 -2 23 -11 25 -34z"/>
<path d="M4030 220 l0 -120 30 0 c27 0 30 3 30 33 0 32 1 33 34 29 27 -3 37 1
55 23 44 56 13 155 -48 155 -15 0 -32 -5 -39 -12 -9 -9 -12 -9 -12 0 0 7 -11
12 -25 12 l-25 0 0 -120z m108 34 c3 -32 -19 -61 -38 -49 -5 3 -10 24 -10 46
0 36 2 40 23 37 16 -2 23 -11 25 -34z"/>
<path d="M4240 250 l0 -90 30 0 c29 0 29 1 32 62 3 57 5 63 28 68 32 7 42 50
12 50 -11 0 -25 -7 -33 -16 -11 -14 -13 -14 -21 0 -5 9 -18 16 -28 16 -18 0
-20 -7 -20 -90z"/>
<path d="M4405 315 c-36 -35 -35 -105 1 -134 28 -22 88 -28 113 -12 23 15 -3
39 -34 33 -14 -2 -33 2 -42 9 -14 12 -10 15 38 19 54 5 54 5 52 38 -3 70 -78
98 -128 47z m83 -32 c2 -9 -7 -13 -28 -13 -28 0 -31 2 -20 15 15 18 41 16 48
-2z"/>
<path d="M4576 332 c-2 -4 -2 -45 1 -90 6 -77 7 -82 29 -82 21 0 23 5 26 63 3
56 5 62 26 65 21 3 22 0 22 -62 l0 -66 30 0 30 0 0 71 c0 88 -10 109 -53 109
-18 0 -38 -5 -44 -11 -8 -8 -13 -8 -17 0 -8 13 -42 15 -50 3z"/>
<path d="M4930 250 l0 -90 30 0 30 0 0 90 0 90 -30 0 -30 0 0 -90z"/>
<path d="M5045 324 c-27 -28 -15 -67 28 -87 42 -21 40 -42 -3 -33 -18 3 -33 0
-40 -9 -28 -34 84 -50 114 -16 27 30 17 63 -26 86 -45 24 -49 40 -9 32 34 -7
56 10 40 30 -16 18 -84 16 -104 -3z"/>
<path d="M5205 320 c-26 -29 -13 -68 30 -86 46 -19 46 -38 1 -30 -23 4 -37 2
-45 -8 -28 -34 82 -51 112 -18 31 34 15 77 -35 95 -28 10 -22 30 6 23 30 -7
58 20 35 35 -26 16 -85 10 -104 -11z"/>
<path d="M5378 329 c-27 -15 -11 -42 21 -36 27 6 60 -6 45 -16 -5 -2 -24 -8
-42 -12 -37 -8 -56 -36 -48 -71 8 -29 47 -41 82 -25 15 6 24 7 24 1 0 -6 12
-10 26 -10 l26 0 -4 76 c-3 60 -7 79 -23 90 -22 16 -82 18 -107 3z m72 -104
c0 -16 -27 -32 -37 -22 -3 4 -3 13 0 22 8 20 37 20 37 0z"/>
<path d="M5567 322 c-19 -20 -23 -67 -7 -77 6 -4 7 -13 1 -23 -5 -10 -9 -28
-8 -42 0 -14 -3 -32 -7 -41 -12 -28 20 -49 75 -49 40 0 55 5 74 25 14 13 25
31 25 39 0 23 -41 46 -82 46 -21 0 -38 5 -38 10 0 6 13 10 28 10 33 0 62 27
62 58 0 13 6 22 15 22 8 0 15 9 15 20 0 18 -7 20 -68 20 -54 0 -72 -4 -85 -18z
m71 -44 c-2 -13 -10 -23 -18 -23 -8 0 -16 10 -18 23 -3 17 2 22 18 22 16 0 21
-5 18 -22z m20 -140 c-3 -7 -17 -13 -33 -13 -16 0 -30 6 -32 13 -3 8 7 12 32
12 25 0 35 -4 33 -12z"/>
<path d="M5769 327 c-47 -36 -51 -97 -10 -138 30 -30 80 -39 110 -20 25 16 5
41 -27 35 -19 -4 -32 -1 -41 10 -12 14 -8 16 38 16 l51 0 0 35 c0 45 -29 75
-72 75 -18 0 -40 -6 -49 -13z m69 -44 c2 -8 -6 -13 -22 -13 -25 0 -33 10 -19
24 10 10 36 3 41 -11z"/>
<path d="M6190 278 c0 -35 6 -74 13 -88 14 -29 59 -39 84 -18 13 10 17 10 20
1 3 -7 16 -13 29 -13 24 0 24 1 24 90 l0 90 -30 0 c-29 0 -29 -1 -32 -62 -3
-55 -5 -63 -23 -63 -18 0 -20 8 -23 63 -3 61 -3 62 -32 62 l-30 0 0 -62z"/>
<path d="M7390 250 c0 -89 0 -90 24 -90 14 0 27 4 30 9 3 4 3 45 -1 90 -6 77
-7 81 -29 81 -23 0 -24 -2 -24 -90z"/>
<path d="M7700 269 c0 -39 5 -79 10 -90 12 -22 59 -26 78 -7 9 9 15 9 24 0 7
-7 20 -12 30 -12 16 0 18 10 18 90 l0 90 -30 0 c-29 0 -29 -1 -32 -62 -2 -50
-6 -63 -20 -66 -16 -3 -18 5 -18 62 l0 66 -30 0 -30 0 0 -71z"/>
</g>
</svg>
